<svg height="420pt" viewBox="-49 0 420 420.10403" width="420pt" xmlns="http://www.w3.org/2000/svg" xmlns:xlink="http://www.w3.org/1999/xlink"><linearGradient id="a"><stop offset=".322" stop-color="#a163f5"/><stop offset=".466" stop-color="#b074ee"/><stop offset=".752" stop-color="#d8a1dd"/><stop offset=".898" stop-color="#efbad3"/></linearGradient><linearGradient id="b" gradientTransform="matrix(1 0 0 -1 -94.547985 468.004026)" gradientUnits="userSpaceOnUse" x1="255.95" x2="255.95" xlink:href="#a" y1="17.518" y2="570.222"/><linearGradient id="c" gradientTransform="matrix(1 0 0 -1 -94.547985 468.004026)" gradientUnits="userSpaceOnUse" x1="212.75" x2="212.75" xlink:href="#a" y1="17.518" y2="570.222"/><linearGradient id="d" gradientTransform="matrix(1 0 0 -1 -94.547985 468.004026)" gradientUnits="userSpaceOnUse" x1="256" x2="256" xlink:href="#a" y1="17.518" y2="570.222"/><path d="m211.953125 3.105469-.101563-.101563c-1.886718-1.945312-4.488281-3.0312498-7.199218-2.99999975-.335938-.01562505-.671875.01562495-1 .10156275h-153.601563c-27.609375.007812-49.988281 22.386719-49.9999998 50v320c.0117188 27.609375 22.3906248 49.988281 49.9999998 50h222.703125c27.609375-.011719 49.988282-22.390625 50-50v-252.203125c-.019531-2.648438-1.058594-5.191406-2.902344-7.097656zm2.699219 31 74.199218 74h-44.199218c-16.546875-.050781-29.953125-13.453125-30-30zm58.199218 365.898437h-222.800781c-16.546875-.046875-29.949219-13.453125-30-30v-320c.050781-16.546875 13.453125-29.953125 30-30h144.601563v58.101563c.007812 27.609375 22.390625 49.988281 50 50h58.101562v241.898437c.03125 16.542969-13.359375 29.980469-29.902344 30zm0 0" fill="url(#b)"/><path d="m64.152344 193.003906h108.101562c5.519532 0 10-4.476562 10-10 0-5.523437-4.480468-10-10-10h-108.101562c-5.523438 0-10 4.476563-10 10 0 5.523438 4.476562 10 10 10zm0 0" fill="url(#c)"/><g fill="url(#d)"><path d="m258.753906 248.605469h-194.601562c-5.523438 0-10 4.476562-10 10 0 5.519531 4.476562 10 10 10h194.601562c5.519532 0 10-4.480469 10-10 0-5.523438-4.480468-10-10-10zm0 0"/><path d="m258.753906 324.304688h-194.601562c-5.523438 0-10 4.476562-10 10 0 5.523437 4.476562 10 10 10h194.601562c5.519532 0 10-4.476563 10-10 0-5.523438-4.480468-10-10-10zm0 0"/></g></svg>